<svg id="Layer_1" enable-background="new 0 0 512 512" height="512" viewBox="0 0 512 512" width="512" xmlns="http://www.w3.org/2000/svg"><g><path d="m320 96h-128c-8.836 0-16-7.164-16-16v-32c0-26.467 21.533-48 48-48h64c26.467 0 48 21.533 48 48v32c0 8.836-7.164 16-16 16zm-112-32h96v-16c0-8.822-7.178-16-16-16h-64c-8.822 0-16 7.178-16 16z" fill="#e1c3a7"/><path d="m439.98 160.76-.73 15.24-1.52 32-12.3 258.28c-1.22 25.64-22.28 45.72-47.94 45.72h-242.98c-25.66 0-46.72-20.08-47.94-45.72l-12.3-258.28-1.52-32-.73-15.24c-.21-4.37 1.38-8.63 4.4-11.8s7.2-4.96 11.58-4.96h336c4.38 0 8.56 1.79 11.58 4.96s4.61 7.43 4.4 11.8z" fill="#f3d4b7"/><path d="m439.98 160.76-14.55 305.52c-1.22 25.64-22.28 45.72-47.94 45.72h-32c25.66 0 46.72-20.08 47.94-45.72l14.55-305.52c.21-4.37-1.38-8.63-4.4-11.8s-7.2-4.96-11.58-4.96h32c4.38 0 8.56 1.79 11.58 4.96s4.61 7.43 4.4 11.8z" fill="#e1c3a7"/><path d="m439.25 176-1.52 32h-363.46l-1.52-32z" fill="#e1c3a7"/><path d="m464 104v56c0 8.84-7.16 16-16 16h-384c-8.84 0-16-7.16-16-16v-56c0-22.06 17.94-40 40-40h336c22.06 0 40 17.94 40 40z" fill="#f3d4b7"/><g fill="#e1c3a7"><path d="m464 104v56c0 8.84-7.16 16-16 16h-32c8.84 0 16-7.16 16-16v-56c0-22.06-17.94-40-40-40h32c22.06 0 40 17.94 40 40z"/><path d="m256 480c-8.836 0-16-7.164-16-16v-208c0-8.836 7.164-16 16-16s16 7.164 16 16v208c0 8.836-7.164 16-16 16z"/><path d="m336 480c-8.836 0-16-7.164-16-16v-208c0-8.836 7.164-16 16-16s16 7.164 16 16v208c0 8.836-7.164 16-16 16z"/><path d="m176 480c-8.836 0-16-7.164-16-16v-208c0-8.836 7.164-16 16-16s16 7.164 16 16v208c0 8.836-7.164 16-16 16z"/></g></g></svg>